# xmcd
#
# Track frame offsets:
#	150
#	20602
#	29380
#	45731
#	58018
#	75716
#	93280
#	102986
#	117677
#	129226
#	142194
#	152348
#	171343
#	181745
#	192186
#	209762
#	224499
#	245276
#	264500
#	283733
#	291886
#	301646
#	308844
#	317570
#	335605
#
# Disc length: 4633
#
# Revision: 1
# Processed by: cddbd v1.5.2PL0 Copyright (c) Steve Scherf et al.
# Submitted via: kJams Lite 1.0b36
#
DISCID=71121719
DTITLE=Zoom Karaoke - Zoom Christmas Pop Box – Disk 1
DYEAR=2015
DGENRE=Christmas
TTITLE0=Abba - Happy New Year
TTITLE1=Adam Faith - Lonely Pup (In A Christmas Shop)
TTITLE2=Aled Jones - Walking In The Air
TTITLE3=Andy Williams - It's The Most Wonderful Time Of The Year
TTITLE4=Band Aid (1994) - Do They Know Its Christmas
TTITLE5=Band Aid (2014) - Do They Know Its Christmas
TTITLE6=Beach Boys - Little Saint Nick
TTITLE7=Bing Crosby - White Christmas
TTITLE8=Bing Crosby - Winter Wonderland
TTITLE9=Bing Crosby§David Bowie - Peace on Earth§Little Drummer Boy
TTITLE10=Bobby Helms - Jingle Bell Rock
TTITLE11=Boney M - Mary's Boy Child (Oh My Lord)
TTITLE12=Brenda Lee - Jingle Bell Rock
TTITLE13=Brenda Lee - Rockin' Around The Christmas Tree
TTITLE14=Bruce Springsteen - Santa Claus Is Coming To Town
TTITLE15=Carpenters - Merry Christmas Darling
TTITLE16=Chris De Burgh - A Spaceman Came Travelling
TTITLE17=Chris Rea - Driving Home For Christmas
TTITLE18=Coldplay - Christmas Lights
TTITLE19=Traditional - Auld Lang Syne
TTITLE20=Traditional - Away In A Manger
TTITLE21=Traditional - Deck The Halls
TTITLE22=Traditional - Ding Dong Merrily On High
TTITLE23=Traditional - God Rest Ye Merry Gentlemen
TTITLE24=Chuck Berry - Good King Wenceslas
EXTD=
EXTT0=
EXTT1=
EXTT2=
EXTT3=
EXTT4=
EXTT5=
EXTT6=
EXTT7=
EXTT8=
EXTT9=
EXTT10=
EXTT11=
EXTT12=
EXTT13=
EXTT14=
EXTT15=
EXTT16=
EXTT17=
EXTT18=
EXTT19=
EXTT20=
EXTT21=
EXTT22=
EXTT23=
EXTT24=
PLAYORDER=
